<svg width="20" height="20" viewBox="0 0 20 20" fill="none" xmlns="http://www.w3.org/2000/svg">
<g clip-path="url(#clip0_63_734)">
<path d="M10 0C7.34844 0 4.80312 1.05422 2.92969 2.92891C1.05432 4.80434 0.000519484 7.34778 0 10C0 12.6511 1.05469 15.1964 2.92969 17.0711C4.80312 18.9458 7.34844 20 10 20C12.6516 20 15.1969 18.9458 17.0703 17.0711C18.9453 15.1964 20 12.6511 20 10C20 7.34891 18.9453 4.80359 17.0703 2.92891C15.1969 1.05422 12.6516 0 10 0Z" fill="url(#paint0_linear_63_734)"/>
<path d="M4.52658 9.89438C7.4422 8.62438 9.38595 7.78704 10.3578 7.3825C13.136 6.22735 13.7125 6.02672 14.0891 6.01993C14.1719 6.0186 14.3563 6.03907 14.4766 6.13633C14.5766 6.21836 14.6047 6.3293 14.6188 6.40719C14.6313 6.485 14.6485 6.66235 14.6344 6.80079C14.4844 8.38204 13.8328 12.2192 13.5016 13.9903C13.3625 14.7397 13.086 14.9909 12.8188 15.0155C12.2375 15.0689 11.7969 14.6317 11.2344 14.2631C10.3547 13.6861 9.85783 13.327 9.00314 12.7641C8.01564 12.1134 8.65626 11.7558 9.21876 11.1714C9.36564 11.0184 11.925 8.6911 11.9735 8.48C11.9797 8.4536 11.986 8.35516 11.9266 8.30329C11.8688 8.25125 11.7828 8.26907 11.7203 8.28313C11.6313 8.30313 10.2266 9.2325 7.50158 11.0711C7.10314 11.3452 6.7422 11.4788 6.4172 11.4717C6.06095 11.4641 5.37345 11.2698 4.86251 11.1039C4.23751 10.9003 3.73908 10.7927 3.78283 10.4469C3.8047 10.2669 4.05314 10.0827 4.52658 9.89438Z" fill="white"/>
</g>
<defs>
<linearGradient id="paint0_linear_63_734" x1="1000" y1="0" x2="1000" y2="2000" gradientUnits="userSpaceOnUse">
<stop stop-color="#2AABEE"/>
<stop offset="1" stop-color="#229ED9"/>
</linearGradient>
<clipPath id="clip0_63_734">
<rect width="20" height="20" fill="white"/>
</clipPath>
</defs>
</svg>
