<svg width="1920" height="1175" viewBox="0 0 1920 1175" fill="none" xmlns="http://www.w3.org/2000/svg">
<path d="M1878 532.387C1738.67 534.054 1447 651.888 1334 308.388C1264.15 96.069 1026 105.593 848.731 86.3572M848.731 86.3572C818.702 83.0987 790.42 79.0148 765 72.8875C611.5 35.8875 598 -63.6125 765 -92.1125C868.854 -109.836 928.725 0.924843 848.731 86.3572ZM848.731 86.3572C807.241 130.669 728.123 168.166 598 177.388C154.612 208.809 145.5 520.887 216 677.387C286.5 833.887 47.5 997.387 -213.5 951.887C-422.3 915.487 -501.5 1085.05 -515 1174.39M-476.251 238.057C-341.234 272.509 -29.0077 234.18 -8.76245 595.222C3.7512 818.383 236.258 870.823 402.505 935.283M402.505 935.283C430.668 946.203 456.929 957.468 479.897 969.965C618.591 1045.43 605.878 1145.04 437.192 1129.34C332.29 1119.58 303.126 997.101 402.505 935.283ZM402.505 935.283C454.051 903.22 540.178 887.478 668.254 912.249C1104.67 996.656 1194.24 697.569 1166.65 528.155C1139.05 358.741 1412.23 262.67 1652.56 374.171C1844.82 463.372 1965.21 320.082 2001.37 237.287" stroke="url(#paint0_linear_18_6223)" stroke-width="5"/>
<defs>
<linearGradient id="paint0_linear_18_6223" x1="-235.15" y1="916.579" x2="1611.63" y2="1415.56" gradientUnits="userSpaceOnUse">
<stop stop-color="#7534FF"/>
<stop offset="0.239583" stop-color="#E3D6FF"/>
<stop offset="0.546875" stop-color="#E3D6FF"/>
<stop offset="0.723958" stop-color="#7534FF"/>
</linearGradient>
</defs>
</svg>
